<mxfile host="app.diagrams.net" modified="2024-06-04T11:49:37.998Z" agent="Mozilla/5.0 (Windows NT 10.0; Win64; x64) AppleWebKit/537.36 (KHTML, like Gecko) Chrome/121.0.0.0 Safari/537.36" etag="7-yJdHe8Xyd5kPyE6xwI" version="24.4.13" type="device">
  <diagram name="Página-1" id="9v0twBVo2FUqTgCRJjNB">
    <mxGraphModel dx="1434" dy="782" grid="1" gridSize="10" guides="1" tooltips="1" connect="1" arrows="1" fold="1" page="1" pageScale="1" pageWidth="827" pageHeight="1169" math="0" shadow="0">
      <root>
        <mxCell id="0" />
        <mxCell id="1" parent="0" />
        <mxCell id="QzXfRGlFkhGOKcSIT1_X-2" value="" style="edgeStyle=orthogonalEdgeStyle;rounded=0;orthogonalLoop=1;jettySize=auto;html=1;" edge="1" parent="1" source="w7ZRcRKWBZO-TnNrPQ1M-1" target="QzXfRGlFkhGOKcSIT1_X-1">
          <mxGeometry relative="1" as="geometry" />
        </mxCell>
        <mxCell id="w7ZRcRKWBZO-TnNrPQ1M-1" value="Cliente" style="shape=umlActor;verticalLabelPosition=bottom;verticalAlign=top;html=1;outlineConnect=0;" parent="1" vertex="1">
          <mxGeometry x="20" y="330" width="110" height="190" as="geometry" />
        </mxCell>
        <mxCell id="QzXfRGlFkhGOKcSIT1_X-4" value="" style="edgeStyle=orthogonalEdgeStyle;rounded=0;orthogonalLoop=1;jettySize=auto;html=1;" edge="1" parent="1" source="QzXfRGlFkhGOKcSIT1_X-1" target="QzXfRGlFkhGOKcSIT1_X-3">
          <mxGeometry relative="1" as="geometry" />
        </mxCell>
        <mxCell id="QzXfRGlFkhGOKcSIT1_X-1" value="Entra na tela de login" style="whiteSpace=wrap;html=1;verticalAlign=middle;" vertex="1" parent="1">
          <mxGeometry x="205" y="395" width="120" height="60" as="geometry" />
        </mxCell>
        <mxCell id="QzXfRGlFkhGOKcSIT1_X-6" value="" style="edgeStyle=orthogonalEdgeStyle;rounded=0;orthogonalLoop=1;jettySize=auto;html=1;" edge="1" parent="1" source="QzXfRGlFkhGOKcSIT1_X-3" target="QzXfRGlFkhGOKcSIT1_X-5">
          <mxGeometry relative="1" as="geometry" />
        </mxCell>
        <mxCell id="QzXfRGlFkhGOKcSIT1_X-3" value="Coloca as informações que se pede" style="whiteSpace=wrap;html=1;" vertex="1" parent="1">
          <mxGeometry x="405" y="395" width="120" height="60" as="geometry" />
        </mxCell>
        <mxCell id="QzXfRGlFkhGOKcSIT1_X-8" value="" style="edgeStyle=orthogonalEdgeStyle;rounded=0;orthogonalLoop=1;jettySize=auto;html=1;" edge="1" parent="1" source="QzXfRGlFkhGOKcSIT1_X-5" target="QzXfRGlFkhGOKcSIT1_X-7">
          <mxGeometry relative="1" as="geometry" />
        </mxCell>
        <mxCell id="QzXfRGlFkhGOKcSIT1_X-5" value="Chega na pagina inicial" style="whiteSpace=wrap;html=1;" vertex="1" parent="1">
          <mxGeometry x="580" y="395" width="120" height="60" as="geometry" />
        </mxCell>
        <mxCell id="QzXfRGlFkhGOKcSIT1_X-10" value="" style="edgeStyle=orthogonalEdgeStyle;rounded=0;orthogonalLoop=1;jettySize=auto;html=1;" edge="1" parent="1" source="QzXfRGlFkhGOKcSIT1_X-7" target="QzXfRGlFkhGOKcSIT1_X-9">
          <mxGeometry relative="1" as="geometry" />
        </mxCell>
        <mxCell id="QzXfRGlFkhGOKcSIT1_X-7" value="escolhe uma das três&lt;div&gt;opções&lt;/div&gt;" style="whiteSpace=wrap;html=1;" vertex="1" parent="1">
          <mxGeometry x="580" y="535" width="120" height="60" as="geometry" />
        </mxCell>
        <mxCell id="QzXfRGlFkhGOKcSIT1_X-12" value="" style="edgeStyle=orthogonalEdgeStyle;rounded=0;orthogonalLoop=1;jettySize=auto;html=1;" edge="1" parent="1" source="QzXfRGlFkhGOKcSIT1_X-9" target="QzXfRGlFkhGOKcSIT1_X-11">
          <mxGeometry relative="1" as="geometry" />
        </mxCell>
        <mxCell id="QzXfRGlFkhGOKcSIT1_X-9" value="Entra na tela de escolha dele" style="whiteSpace=wrap;html=1;" vertex="1" parent="1">
          <mxGeometry x="580" y="710" width="120" height="60" as="geometry" />
        </mxCell>
        <mxCell id="QzXfRGlFkhGOKcSIT1_X-14" value="" style="edgeStyle=orthogonalEdgeStyle;rounded=0;orthogonalLoop=1;jettySize=auto;html=1;" edge="1" parent="1" source="QzXfRGlFkhGOKcSIT1_X-11" target="QzXfRGlFkhGOKcSIT1_X-13">
          <mxGeometry relative="1" as="geometry" />
        </mxCell>
        <mxCell id="QzXfRGlFkhGOKcSIT1_X-11" value="adiciona os valores,&lt;div&gt;Por exemplo&amp;nbsp;&lt;/div&gt;&lt;div&gt;&amp;nbsp;&quot;dividas&quot;&lt;/div&gt;" style="whiteSpace=wrap;html=1;" vertex="1" parent="1">
          <mxGeometry x="370" y="710" width="120" height="60" as="geometry" />
        </mxCell>
        <mxCell id="QzXfRGlFkhGOKcSIT1_X-16" value="" style="edgeStyle=orthogonalEdgeStyle;rounded=0;orthogonalLoop=1;jettySize=auto;html=1;" edge="1" parent="1" source="QzXfRGlFkhGOKcSIT1_X-13" target="QzXfRGlFkhGOKcSIT1_X-15">
          <mxGeometry relative="1" as="geometry" />
        </mxCell>
        <mxCell id="QzXfRGlFkhGOKcSIT1_X-13" value="Coloca as informações das dividas" style="whiteSpace=wrap;html=1;" vertex="1" parent="1">
          <mxGeometry x="160" y="710" width="120" height="60" as="geometry" />
        </mxCell>
        <mxCell id="QzXfRGlFkhGOKcSIT1_X-15" value="clica em adicionar" style="whiteSpace=wrap;html=1;" vertex="1" parent="1">
          <mxGeometry x="160" y="850" width="120" height="60" as="geometry" />
        </mxCell>
        <mxCell id="QzXfRGlFkhGOKcSIT1_X-17" value="CASOS DE USO" style="rounded=1;whiteSpace=wrap;html=1;fontStyle=7;fontSize=38;" vertex="1" parent="1">
          <mxGeometry x="250" y="130" width="360" height="60" as="geometry" />
        </mxCell>
        <mxCell id="QzXfRGlFkhGOKcSIT1_X-20" value="&lt;span style=&quot;font-size: 15px;&quot;&gt;Função simples do&amp;nbsp;&lt;/span&gt;&lt;span style=&quot;font-size: 15px; background-color: initial;&quot;&gt;app&lt;/span&gt;" style="swimlane;whiteSpace=wrap;html=1;startSize=50;fontStyle=3" vertex="1" parent="1">
          <mxGeometry x="10" y="260" width="960" height="760" as="geometry" />
        </mxCell>
        <mxCell id="QzXfRGlFkhGOKcSIT1_X-22" value="" style="edgeStyle=orthogonalEdgeStyle;rounded=0;orthogonalLoop=1;jettySize=auto;html=1;" edge="1" parent="1" source="QzXfRGlFkhGOKcSIT1_X-23" target="QzXfRGlFkhGOKcSIT1_X-25">
          <mxGeometry relative="1" as="geometry" />
        </mxCell>
        <mxCell id="QzXfRGlFkhGOKcSIT1_X-23" value="Cliente" style="shape=umlActor;verticalLabelPosition=bottom;verticalAlign=top;html=1;outlineConnect=0;" vertex="1" parent="1">
          <mxGeometry x="60" y="1300" width="110" height="190" as="geometry" />
        </mxCell>
        <mxCell id="QzXfRGlFkhGOKcSIT1_X-24" value="" style="edgeStyle=orthogonalEdgeStyle;rounded=0;orthogonalLoop=1;jettySize=auto;html=1;" edge="1" parent="1" source="QzXfRGlFkhGOKcSIT1_X-25" target="QzXfRGlFkhGOKcSIT1_X-27">
          <mxGeometry relative="1" as="geometry" />
        </mxCell>
        <mxCell id="QzXfRGlFkhGOKcSIT1_X-25" value="Entra na tela de login" style="whiteSpace=wrap;html=1;verticalAlign=middle;" vertex="1" parent="1">
          <mxGeometry x="245" y="1365" width="120" height="60" as="geometry" />
        </mxCell>
        <mxCell id="QzXfRGlFkhGOKcSIT1_X-26" value="" style="edgeStyle=orthogonalEdgeStyle;rounded=0;orthogonalLoop=1;jettySize=auto;html=1;" edge="1" parent="1" source="QzXfRGlFkhGOKcSIT1_X-27" target="QzXfRGlFkhGOKcSIT1_X-29">
          <mxGeometry relative="1" as="geometry" />
        </mxCell>
        <mxCell id="QzXfRGlFkhGOKcSIT1_X-27" value="Coloca as informações que se pede" style="whiteSpace=wrap;html=1;" vertex="1" parent="1">
          <mxGeometry x="445" y="1365" width="120" height="60" as="geometry" />
        </mxCell>
        <mxCell id="QzXfRGlFkhGOKcSIT1_X-28" value="" style="edgeStyle=orthogonalEdgeStyle;rounded=0;orthogonalLoop=1;jettySize=auto;html=1;" edge="1" parent="1" source="QzXfRGlFkhGOKcSIT1_X-29" target="QzXfRGlFkhGOKcSIT1_X-31">
          <mxGeometry relative="1" as="geometry" />
        </mxCell>
        <mxCell id="QzXfRGlFkhGOKcSIT1_X-29" value="Chega na pagina inicial" style="whiteSpace=wrap;html=1;" vertex="1" parent="1">
          <mxGeometry x="620" y="1365" width="120" height="60" as="geometry" />
        </mxCell>
        <mxCell id="QzXfRGlFkhGOKcSIT1_X-30" value="" style="edgeStyle=orthogonalEdgeStyle;rounded=0;orthogonalLoop=1;jettySize=auto;html=1;" edge="1" parent="1" source="QzXfRGlFkhGOKcSIT1_X-31" target="QzXfRGlFkhGOKcSIT1_X-33">
          <mxGeometry relative="1" as="geometry" />
        </mxCell>
        <mxCell id="QzXfRGlFkhGOKcSIT1_X-31" value="escolhe uma das três&lt;div&gt;opções&lt;/div&gt;" style="whiteSpace=wrap;html=1;" vertex="1" parent="1">
          <mxGeometry x="620" y="1505" width="120" height="60" as="geometry" />
        </mxCell>
        <mxCell id="QzXfRGlFkhGOKcSIT1_X-46" style="edgeStyle=orthogonalEdgeStyle;rounded=0;orthogonalLoop=1;jettySize=auto;html=1;exitX=0;exitY=0.5;exitDx=0;exitDy=0;entryX=0.5;entryY=0;entryDx=0;entryDy=0;" edge="1" parent="1" source="QzXfRGlFkhGOKcSIT1_X-33" target="QzXfRGlFkhGOKcSIT1_X-40">
          <mxGeometry relative="1" as="geometry" />
        </mxCell>
        <mxCell id="QzXfRGlFkhGOKcSIT1_X-33" value="Entra na tela de escolha dele" style="whiteSpace=wrap;html=1;" vertex="1" parent="1">
          <mxGeometry x="620" y="1680" width="120" height="60" as="geometry" />
        </mxCell>
        <mxCell id="QzXfRGlFkhGOKcSIT1_X-39" value="&lt;span style=&quot;font-size: 15px;&quot;&gt;Função de apagamento de dados&lt;br&gt;&lt;/span&gt;" style="swimlane;whiteSpace=wrap;html=1;startSize=50;fontStyle=3" vertex="1" parent="1">
          <mxGeometry x="50" y="1230" width="960" height="760" as="geometry" />
        </mxCell>
        <mxCell id="QzXfRGlFkhGOKcSIT1_X-40" value="clica em apagar" style="whiteSpace=wrap;html=1;" vertex="1" parent="QzXfRGlFkhGOKcSIT1_X-39">
          <mxGeometry x="360" y="590" width="120" height="60" as="geometry" />
        </mxCell>
        <mxCell id="QzXfRGlFkhGOKcSIT1_X-44" value="AVISO:&lt;div&gt;Tem certeza?&lt;/div&gt;&lt;div&gt;&lt;br&gt;&lt;/div&gt;&lt;div&gt;sim&amp;nbsp; /&amp;nbsp; não&lt;/div&gt;" style="ellipse;shape=cloud;whiteSpace=wrap;html=1;" vertex="1" parent="QzXfRGlFkhGOKcSIT1_X-39">
          <mxGeometry x="550" y="600" width="140" height="100" as="geometry" />
        </mxCell>
        <mxCell id="QzXfRGlFkhGOKcSIT1_X-47" style="edgeStyle=orthogonalEdgeStyle;rounded=0;orthogonalLoop=1;jettySize=auto;html=1;exitX=0.5;exitY=1;exitDx=0;exitDy=0;entryX=0.13;entryY=0.77;entryDx=0;entryDy=0;entryPerimeter=0;" edge="1" parent="QzXfRGlFkhGOKcSIT1_X-39" source="QzXfRGlFkhGOKcSIT1_X-40" target="QzXfRGlFkhGOKcSIT1_X-44">
          <mxGeometry relative="1" as="geometry" />
        </mxCell>
        <mxCell id="QzXfRGlFkhGOKcSIT1_X-45" style="edgeStyle=orthogonalEdgeStyle;rounded=0;orthogonalLoop=1;jettySize=auto;html=1;exitX=0.625;exitY=0.2;exitDx=0;exitDy=0;exitPerimeter=0;entryX=0.5;entryY=1;entryDx=0;entryDy=0;" edge="1" parent="1" source="QzXfRGlFkhGOKcSIT1_X-44" target="QzXfRGlFkhGOKcSIT1_X-33">
          <mxGeometry relative="1" as="geometry" />
        </mxCell>
      </root>
    </mxGraphModel>
  </diagram>
</mxfile>
